<svg width="260" height="253" viewBox="0 0 260 253" fill="none" xmlns="http://www.w3.org/2000/svg">
<path d="M259.02 126.5C259.02 196.364 201.264 253 130.02 253C58.7748 253 1.01953 196.364 1.01953 126.5C1.01953 56.636 58.7748 0 130.02 0C201.264 0 259.02 56.636 259.02 126.5Z" fill="url(#paint0_radial_961_568)"/>
<path d="M216.346 150.28L0.999711 149.855" stroke="url(#paint1_angular_961_568)" stroke-width="13.5" style="mix-blend-mode:color-dodge"/>
<path d="M217.089 126.855L1.26785 126.944" stroke="url(#paint2_angular_961_568)" stroke-width="13.5" style="mix-blend-mode:color-dodge"/>
<path d="M90.2139 150.465L258.946 150.323" stroke="url(#paint3_angular_961_568)" stroke-width="13.5" style="mix-blend-mode:color-dodge"/>
<path d="M89.1719 127.122L259.245 126.671" stroke="url(#paint4_angular_961_568)" stroke-width="13.5" style="mix-blend-mode:color-dodge"/>
<g filter="url(#filter0_d_961_568)">
<mask id="path-6-outside-1_961_568" maskUnits="userSpaceOnUse" x="42.0195" y="83" width="171" height="32" fill="black">
<rect fill="white" x="42.0195" y="83" width="171" height="32"/>
<path d="M57.2302 113.28C54.6435 113.28 52.2835 112.68 50.1502 111.48C48.0168 110.253 46.3235 108.56 45.0702 106.4C43.8435 104.213 43.2302 101.76 43.2302 99.04C43.2302 96.32 43.8435 93.88 45.0702 91.72C46.3235 89.5333 48.0168 87.84 50.1502 86.64C52.2835 85.4133 54.6435 84.8 57.2302 84.8C59.8435 84.8 62.2168 85.4133 64.3502 86.64C66.4835 87.84 68.1635 89.52 69.3902 91.68C70.6168 93.84 71.2302 96.2933 71.2302 99.04C71.2302 101.787 70.6168 104.24 69.3902 106.4C68.1635 108.56 66.4835 110.253 64.3502 111.48C62.2168 112.68 59.8435 113.28 57.2302 113.28ZM57.2302 110.12C59.1768 110.12 60.9235 109.667 62.4702 108.76C64.0435 107.853 65.2702 106.56 66.1502 104.88C67.0568 103.2 67.5102 101.253 67.5102 99.04C67.5102 96.8 67.0568 94.8533 66.1502 93.2C65.2702 91.52 64.0568 90.2267 62.5102 89.32C60.9635 88.4133 59.2035 87.96 57.2302 87.96C55.2568 87.96 53.4968 88.4133 51.9502 89.32C50.4035 90.2267 49.1768 91.52 48.2702 93.2C47.3902 94.8533 46.9502 96.8 46.9502 99.04C46.9502 101.253 47.3902 103.2 48.2702 104.88C49.1768 106.56 50.4035 107.853 51.9502 108.76C53.5235 109.667 55.2835 110.12 57.2302 110.12ZM91.1155 113L84.4755 101.6H80.0755V113H76.4355V85.12H85.4355C87.5421 85.12 89.3155 85.48 90.7555 86.2C92.2221 86.92 93.3155 87.8933 94.0355 89.12C94.7555 90.3467 95.1155 91.7467 95.1155 93.32C95.1155 95.24 94.5555 96.9333 93.4355 98.4C92.3421 99.8667 90.6888 100.84 88.4755 101.32L95.4755 113H91.1155ZM80.0755 98.68H85.4355C87.4088 98.68 88.8888 98.2 89.8755 97.24C90.8621 96.2533 91.3555 94.9467 91.3555 93.32C91.3555 91.6667 90.8621 90.3867 89.8755 89.48C88.9155 88.5733 87.4355 88.12 85.4355 88.12H80.0755V98.68ZM104.811 85.12V113H101.171V85.12H104.811ZM115.055 88.08V97.4H125.215V100.4H115.055V110H126.415V113H111.415V85.08H126.415V88.08H115.055ZM154.243 113H150.603L135.963 90.8V113H132.323V85.08H135.963L150.603 107.24V85.08H154.243V113ZM178.008 85.12V88.08H170.408V113H166.768V88.08H159.128V85.12H178.008ZM186.529 85.12V113H182.889V85.12H186.529ZM201.972 113.28C200.132 113.28 198.479 112.96 197.012 112.32C195.572 111.653 194.439 110.747 193.612 109.6C192.786 108.427 192.359 107.08 192.332 105.56H196.212C196.346 106.867 196.879 107.973 197.812 108.88C198.772 109.76 200.159 110.2 201.972 110.2C203.706 110.2 205.066 109.773 206.052 108.92C207.066 108.04 207.572 106.92 207.572 105.56C207.572 104.493 207.279 103.627 206.692 102.96C206.106 102.293 205.372 101.787 204.492 101.44C203.612 101.093 202.426 100.72 200.932 100.32C199.092 99.84 197.612 99.36 196.492 98.88C195.399 98.4 194.452 97.6533 193.652 96.64C192.879 95.6 192.492 94.2133 192.492 92.48C192.492 90.96 192.879 89.6133 193.652 88.44C194.426 87.2667 195.506 86.36 196.892 85.72C198.306 85.08 199.919 84.76 201.732 84.76C204.346 84.76 206.479 85.4133 208.132 86.72C209.812 88.0267 210.759 89.76 210.972 91.92H206.972C206.839 90.8533 206.279 89.92 205.292 89.12C204.306 88.2933 202.999 87.88 201.372 87.88C199.852 87.88 198.612 88.28 197.652 89.08C196.692 89.8533 196.212 90.9467 196.212 92.36C196.212 93.3733 196.492 94.2 197.052 94.84C197.639 95.48 198.346 95.9733 199.172 96.32C200.026 96.64 201.212 97.0133 202.732 97.44C204.572 97.9467 206.052 98.4533 207.172 98.96C208.292 99.44 209.252 100.2 210.052 101.24C210.852 102.253 211.252 103.64 211.252 105.4C211.252 106.76 210.892 108.04 210.172 109.24C209.452 110.44 208.386 111.413 206.972 112.16C205.559 112.907 203.892 113.28 201.972 113.28Z"/>
</mask>
<path d="M57.2302 113.28C54.6435 113.28 52.2835 112.68 50.1502 111.48C48.0168 110.253 46.3235 108.56 45.0702 106.4C43.8435 104.213 43.2302 101.76 43.2302 99.04C43.2302 96.32 43.8435 93.88 45.0702 91.72C46.3235 89.5333 48.0168 87.84 50.1502 86.64C52.2835 85.4133 54.6435 84.8 57.2302 84.8C59.8435 84.8 62.2168 85.4133 64.3502 86.64C66.4835 87.84 68.1635 89.52 69.3902 91.68C70.6168 93.84 71.2302 96.2933 71.2302 99.04C71.2302 101.787 70.6168 104.24 69.3902 106.4C68.1635 108.56 66.4835 110.253 64.3502 111.48C62.2168 112.68 59.8435 113.28 57.2302 113.28ZM57.2302 110.12C59.1768 110.12 60.9235 109.667 62.4702 108.76C64.0435 107.853 65.2702 106.56 66.1502 104.88C67.0568 103.2 67.5102 101.253 67.5102 99.04C67.5102 96.8 67.0568 94.8533 66.1502 93.2C65.2702 91.52 64.0568 90.2267 62.5102 89.32C60.9635 88.4133 59.2035 87.96 57.2302 87.96C55.2568 87.96 53.4968 88.4133 51.9502 89.32C50.4035 90.2267 49.1768 91.52 48.2702 93.2C47.3902 94.8533 46.9502 96.8 46.9502 99.04C46.9502 101.253 47.3902 103.2 48.2702 104.88C49.1768 106.56 50.4035 107.853 51.9502 108.76C53.5235 109.667 55.2835 110.12 57.2302 110.12ZM91.1155 113L84.4755 101.6H80.0755V113H76.4355V85.12H85.4355C87.5421 85.12 89.3155 85.48 90.7555 86.2C92.2221 86.92 93.3155 87.8933 94.0355 89.12C94.7555 90.3467 95.1155 91.7467 95.1155 93.32C95.1155 95.24 94.5555 96.9333 93.4355 98.4C92.3421 99.8667 90.6888 100.84 88.4755 101.32L95.4755 113H91.1155ZM80.0755 98.68H85.4355C87.4088 98.68 88.8888 98.2 89.8755 97.24C90.8621 96.2533 91.3555 94.9467 91.3555 93.32C91.3555 91.6667 90.8621 90.3867 89.8755 89.48C88.9155 88.5733 87.4355 88.12 85.4355 88.12H80.0755V98.68ZM104.811 85.12V113H101.171V85.12H104.811ZM115.055 88.08V97.4H125.215V100.4H115.055V110H126.415V113H111.415V85.08H126.415V88.08H115.055ZM154.243 113H150.603L135.963 90.8V113H132.323V85.08H135.963L150.603 107.24V85.08H154.243V113ZM178.008 85.12V88.08H170.408V113H166.768V88.08H159.128V85.12H178.008ZM186.529 85.12V113H182.889V85.12H186.529ZM201.972 113.28C200.132 113.28 198.479 112.96 197.012 112.32C195.572 111.653 194.439 110.747 193.612 109.6C192.786 108.427 192.359 107.08 192.332 105.56H196.212C196.346 106.867 196.879 107.973 197.812 108.88C198.772 109.76 200.159 110.2 201.972 110.2C203.706 110.2 205.066 109.773 206.052 108.92C207.066 108.04 207.572 106.92 207.572 105.56C207.572 104.493 207.279 103.627 206.692 102.96C206.106 102.293 205.372 101.787 204.492 101.44C203.612 101.093 202.426 100.72 200.932 100.32C199.092 99.84 197.612 99.36 196.492 98.88C195.399 98.4 194.452 97.6533 193.652 96.64C192.879 95.6 192.492 94.2133 192.492 92.48C192.492 90.96 192.879 89.6133 193.652 88.44C194.426 87.2667 195.506 86.36 196.892 85.72C198.306 85.08 199.919 84.76 201.732 84.76C204.346 84.76 206.479 85.4133 208.132 86.72C209.812 88.0267 210.759 89.76 210.972 91.92H206.972C206.839 90.8533 206.279 89.92 205.292 89.12C204.306 88.2933 202.999 87.88 201.372 87.88C199.852 87.88 198.612 88.28 197.652 89.08C196.692 89.8533 196.212 90.9467 196.212 92.36C196.212 93.3733 196.492 94.2 197.052 94.84C197.639 95.48 198.346 95.9733 199.172 96.32C200.026 96.64 201.212 97.0133 202.732 97.44C204.572 97.9467 206.052 98.4533 207.172 98.96C208.292 99.44 209.252 100.2 210.052 101.24C210.852 102.253 211.252 103.64 211.252 105.4C211.252 106.76 210.892 108.04 210.172 109.24C209.452 110.44 208.386 111.413 206.972 112.16C205.559 112.907 203.892 113.28 201.972 113.28Z" fill="#17FF90"/>
<path d="M50.1502 111.48L49.6517 112.347L49.6599 112.352L50.1502 111.48ZM45.0702 106.4L44.198 106.889L44.2016 106.896L44.2052 106.902L45.0702 106.4ZM45.0702 91.72L44.2026 91.2227L44.2006 91.2262L45.0702 91.72ZM50.1502 86.64L50.6404 87.5116L50.6486 87.5069L50.1502 86.64ZM64.3502 86.64L63.8517 87.5069L63.8599 87.5116L64.3502 86.64ZM69.3902 91.68L70.2597 91.1862L70.2597 91.1862L69.3902 91.68ZM69.3902 106.4L68.5206 105.906L69.3902 106.4ZM64.3502 111.48L64.8404 112.352L64.8486 112.347L64.3502 111.48ZM62.4702 108.76L61.9708 107.894L61.9644 107.897L62.4702 108.76ZM66.1502 104.88L65.2701 104.405L65.2643 104.416L66.1502 104.88ZM66.1502 93.2L65.2643 93.664L65.2688 93.6725L65.2733 93.6808L66.1502 93.2ZM62.5102 89.32L62.0044 90.1827L62.0044 90.1827L62.5102 89.32ZM51.9502 89.32L52.4559 90.1827L52.4559 90.1827L51.9502 89.32ZM48.2702 93.2L47.3901 92.7251L47.3874 92.7301L48.2702 93.2ZM48.2702 104.88L47.3843 105.344L47.3901 105.355L48.2702 104.88ZM51.9502 108.76L51.4444 109.623L51.4509 109.626L51.9502 108.76ZM57.2302 112.28C54.8051 112.28 52.6155 111.719 50.6404 110.608L49.6599 112.352C51.9515 113.641 54.4819 114.28 57.2302 114.28V112.28ZM50.6486 110.613C48.6697 109.475 47.1018 107.909 45.9351 105.898L44.2052 106.902C45.5452 109.211 47.364 111.031 49.6517 112.347L50.6486 110.613ZM45.9423 105.911C44.8065 103.886 44.2302 101.604 44.2302 99.04H42.2302C42.2302 101.916 42.8805 104.541 44.198 106.889L45.9423 105.911ZM44.2302 99.04C44.2302 96.4762 44.8065 94.2092 45.9397 92.2138L44.2006 91.2262C42.8805 93.5508 42.2302 96.1638 42.2302 99.04H44.2302ZM45.9377 92.2173C47.1042 90.1823 48.6691 88.6204 50.6404 87.5116L49.6599 85.7684C47.3645 87.0596 45.5428 88.8844 44.2026 91.2227L45.9377 92.2173ZM50.6486 87.5069C52.6224 86.372 54.8091 85.8 57.2302 85.8V83.8C54.4778 83.8 51.9445 84.4547 49.6517 85.7731L50.6486 87.5069ZM57.2302 85.8C59.6798 85.8 61.8795 86.3729 63.8517 87.5069L64.8486 85.7731C62.5542 84.4538 60.0072 83.8 57.2302 83.8V85.8ZM63.8599 87.5116C65.8324 88.6211 67.3823 90.1694 68.5206 92.1738L70.2597 91.1862C68.9447 88.8706 67.1346 87.0589 64.8404 85.7684L63.8599 87.5116ZM68.5206 92.1738C69.653 94.1678 70.2302 96.4477 70.2302 99.04H72.2302C72.2302 96.139 71.5807 93.5122 70.2597 91.1862L68.5206 92.1738ZM70.2302 99.04C70.2302 101.632 69.653 103.912 68.5206 105.906L70.2597 106.894C71.5807 104.568 72.2302 101.941 72.2302 99.04H70.2302ZM68.5206 105.906C67.3812 107.912 65.8287 109.476 63.8517 110.613L64.8486 112.347C67.1383 111.03 68.9458 109.208 70.2597 106.894L68.5206 105.906ZM63.8599 110.608C61.8864 111.719 59.6838 112.28 57.2302 112.28V114.28C60.0032 114.28 62.5473 113.641 64.8404 112.352L63.8599 110.608ZM57.2302 111.12C59.3389 111.12 61.2628 110.627 62.9759 109.623L61.9644 107.897C60.5842 108.706 59.0148 109.12 57.2302 109.12V111.12ZM62.9695 109.626C64.7147 108.621 66.072 107.184 67.036 105.344L65.2643 104.416C64.4683 105.936 63.3723 107.086 61.9709 107.894L62.9695 109.626ZM67.0302 105.355C68.0273 103.507 68.5102 101.393 68.5102 99.04H66.5102C66.5102 101.114 66.0863 102.893 65.2701 104.405L67.0302 105.355ZM68.5102 99.04C68.5102 96.6635 68.0284 94.5453 67.027 92.7192L65.2733 93.6808C66.0853 95.1614 66.5102 96.9365 66.5102 99.04H68.5102ZM67.036 92.736C66.0744 90.9002 64.7336 89.4642 63.0159 88.4573L62.0044 90.1827C63.3801 90.9891 64.4659 92.1398 65.2643 93.664L67.036 92.736ZM63.0159 88.4573C61.3007 87.4519 59.3629 86.96 57.2302 86.96V88.96C59.0441 88.96 60.6263 89.3748 62.0044 90.1827L63.0159 88.4573ZM57.2302 86.96C55.0974 86.96 53.1596 87.4519 51.4444 88.4573L52.4559 90.1827C53.834 89.3748 55.4162 88.96 57.2302 88.96V86.96ZM51.4444 88.4573C49.7295 89.4626 48.3779 90.8949 47.3901 92.7251L49.1502 93.6749C49.9758 92.1451 51.0774 90.9907 52.4559 90.1827L51.4444 88.4573ZM47.3874 92.7301C46.4167 94.5539 45.9502 96.6681 45.9502 99.04H47.9502C47.9502 96.9319 48.3636 95.1527 49.1529 93.6698L47.3874 92.7301ZM45.9502 99.04C45.9502 101.388 46.4177 103.499 47.3843 105.344L49.156 104.416C48.3626 102.901 47.9502 101.119 47.9502 99.04H45.9502ZM47.3901 105.355C48.3779 107.185 49.7295 108.617 51.4444 109.623L52.4559 107.897C51.0774 107.089 49.9758 105.935 49.1502 104.405L47.3901 105.355ZM51.4509 109.626C53.187 110.627 55.1213 111.12 57.2302 111.12V109.12C55.4457 109.12 53.86 108.706 52.4495 107.894L51.4509 109.626ZM91.1155 113L90.2514 113.503L90.5407 114H91.1155V113ZM84.4755 101.6L85.3396 101.097L85.0503 100.6H84.4755V101.6ZM80.0755 101.6V100.6H79.0755V101.6H80.0755ZM80.0755 113V114H81.0755V113H80.0755ZM76.4355 113H75.4355V114H76.4355V113ZM76.4355 85.12V84.12H75.4355V85.12H76.4355ZM90.7555 86.2L90.3082 87.0945L90.3148 87.0977L90.7555 86.2ZM93.4355 98.4L92.6406 97.793L92.6337 97.8023L93.4355 98.4ZM88.4755 101.32L88.2635 100.343L86.901 100.638L87.6177 101.834L88.4755 101.32ZM95.4755 113V114H97.2406L96.3332 112.486L95.4755 113ZM80.0755 98.68H79.0755V99.68H80.0755V98.68ZM89.8755 97.24L90.5729 97.9568L90.5826 97.9471L89.8755 97.24ZM89.8755 89.48L89.1888 90.2071L89.1988 90.2163L89.8755 89.48ZM80.0755 88.12V87.12H79.0755V88.12H80.0755ZM91.9796 112.497L85.3396 101.097L83.6114 102.103L90.2514 113.503L91.9796 112.497ZM84.4755 100.6H80.0755V102.6H84.4755V100.6ZM79.0755 101.6V113H81.0755V101.6H79.0755ZM80.0755 112H76.4355V114H80.0755V112ZM77.4355 113V85.12H75.4355V113H77.4355ZM76.4355 86.12H85.4355V84.12H76.4355V86.12ZM85.4355 86.12C87.433 86.12 89.0432 86.4619 90.3083 87.0944L91.2027 85.3056C89.5878 84.4981 87.6513 84.12 85.4355 84.12V86.12ZM90.3148 87.0977C91.6324 87.7445 92.5664 88.5926 93.1731 89.6262L94.8979 88.6138C94.0646 87.194 92.8118 86.0955 91.1961 85.3023L90.3148 87.0977ZM93.1731 89.6262C93.7936 90.6835 94.1155 91.9052 94.1155 93.32H96.1155C96.1155 91.5881 95.7173 90.0099 94.8979 88.6138L93.1731 89.6262ZM94.1155 93.32C94.1155 95.0302 93.6219 96.5082 92.6407 97.7931L94.2302 99.0069C95.489 97.3585 96.1155 95.4498 96.1155 93.32H94.1155ZM92.6337 97.8023C91.7168 99.0324 90.2992 99.9012 88.2635 100.343L88.6874 102.297C91.0784 101.779 92.9675 100.701 94.2372 98.9977L92.6337 97.8023ZM87.6177 101.834L94.6177 113.514L96.3332 112.486L89.3332 100.806L87.6177 101.834ZM95.4755 112H91.1155V114H95.4755V112ZM80.0755 99.68H85.4355V97.68H80.0755V99.68ZM85.4355 99.68C87.5562 99.68 89.3317 99.1644 90.5728 97.9567L89.1781 96.5233C88.446 97.2356 87.2614 97.68 85.4355 97.68V99.68ZM90.5826 97.9471C91.7879 96.7418 92.3555 95.1644 92.3555 93.32H90.3555C90.3555 94.7289 89.9364 95.7649 89.1684 96.5329L90.5826 97.9471ZM92.3555 93.32C92.3555 91.4572 91.7915 89.8826 90.5521 88.7437L89.1988 90.2163C89.9328 90.8907 90.3555 91.8762 90.3555 93.32H92.3555ZM90.5621 88.753C89.3405 87.5993 87.5626 87.12 85.4355 87.12V89.12C87.3084 89.12 88.4904 89.5474 89.1888 90.207L90.5621 88.753ZM85.4355 87.12H80.0755V89.12H85.4355V87.12ZM79.0755 88.12V98.68H81.0755V88.12H79.0755ZM104.811 85.12H105.811V84.12H104.811V85.12ZM104.811 113V114H105.811V113H104.811ZM101.171 113H100.171V114H101.171V113ZM101.171 85.12V84.12H100.171V85.12H101.171ZM103.811 85.12V113H105.811V85.12H103.811ZM104.811 112H101.171V114H104.811V112ZM102.171 113V85.12H100.171V113H102.171ZM101.171 86.12H104.811V84.12H101.171V86.12ZM115.055 88.08V87.08H114.055V88.08H115.055ZM115.055 97.4H114.055V98.4H115.055V97.4ZM125.215 97.4H126.215V96.4H125.215V97.4ZM125.215 100.4V101.4H126.215V100.4H125.215ZM115.055 100.4V99.4H114.055V100.4H115.055ZM115.055 110H114.055V111H115.055V110ZM126.415 110H127.415V109H126.415V110ZM126.415 113V114H127.415V113H126.415ZM111.415 113H110.415V114H111.415V113ZM111.415 85.08V84.08H110.415V85.08H111.415ZM126.415 85.08H127.415V84.08H126.415V85.08ZM126.415 88.08V89.08H127.415V88.08H126.415ZM114.055 88.08V97.4H116.055V88.08H114.055ZM115.055 98.4H125.215V96.4H115.055V98.4ZM124.215 97.4V100.4H126.215V97.4H124.215ZM125.215 99.4H115.055V101.4H125.215V99.4ZM114.055 100.4V110H116.055V100.4H114.055ZM115.055 111H126.415V109H115.055V111ZM125.415 110V113H127.415V110H125.415ZM126.415 112H111.415V114H126.415V112ZM112.415 113V85.08H110.415V113H112.415ZM111.415 86.08H126.415V84.08H111.415V86.08ZM125.415 85.08V88.08H127.415V85.08H125.415ZM126.415 87.08H115.055V89.08H126.415V87.08ZM154.243 113V114H155.243V113H154.243ZM150.603 113L149.768 113.551L150.065 114H150.603V113ZM135.963 90.8L136.798 90.2495L134.963 87.4672V90.8H135.963ZM135.963 113V114H136.963V113H135.963ZM132.323 113H131.323V114H132.323V113ZM132.323 85.08V84.08H131.323V85.08H132.323ZM135.963 85.08L136.797 84.5288L136.501 84.08H135.963V85.08ZM150.603 107.24L149.769 107.791L151.603 110.568V107.24H150.603ZM150.603 85.08V84.08H149.603V85.08H150.603ZM154.243 85.08H155.243V84.08H154.243V85.08ZM154.243 112H150.603V114H154.243V112ZM151.438 112.449L136.798 90.2495L135.128 91.3505L149.768 113.551L151.438 112.449ZM134.963 90.8V113H136.963V90.8H134.963ZM135.963 112H132.323V114H135.963V112ZM133.323 113V85.08H131.323V113H133.323ZM132.323 86.08H135.963V84.08H132.323V86.08ZM135.129 85.6312L149.769 107.791L151.437 106.689L136.797 84.5288L135.129 85.6312ZM151.603 107.24V85.08H149.603V107.24H151.603ZM150.603 86.08H154.243V84.08H150.603V86.08ZM153.243 85.08V113H155.243V85.08H153.243ZM178.008 85.12H179.008V84.12H178.008V85.12ZM178.008 88.08V89.08H179.008V88.08H178.008ZM170.408 88.08V87.08H169.408V88.08H170.408ZM170.408 113V114H171.408V113H170.408ZM166.768 113H165.768V114H166.768V113ZM166.768 88.08H167.768V87.08H166.768V88.08ZM159.128 88.08H158.128V89.08H159.128V88.08ZM159.128 85.12V84.12H158.128V85.12H159.128ZM177.008 85.12V88.08H179.008V85.12H177.008ZM178.008 87.08H170.408V89.08H178.008V87.08ZM169.408 88.08V113H171.408V88.08H169.408ZM170.408 112H166.768V114H170.408V112ZM167.768 113V88.08H165.768V113H167.768ZM166.768 87.08H159.128V89.08H166.768V87.08ZM160.128 88.08V85.12H158.128V88.08H160.128ZM159.128 86.12H178.008V84.12H159.128V86.12ZM186.529 85.12H187.529V84.12H186.529V85.12ZM186.529 113V114H187.529V113H186.529ZM182.889 113H181.889V114H182.889V113ZM182.889 85.12V84.12H181.889V85.12H182.889ZM185.529 85.12V113H187.529V85.12H185.529ZM186.529 112H182.889V114H186.529V112ZM183.889 113V85.12H181.889V113H183.889ZM182.889 86.12H186.529V84.12H182.889V86.12ZM197.012 112.32L196.592 113.227L196.602 113.232L196.612 113.237L197.012 112.32ZM193.612 109.6L192.795 110.176L192.801 110.185L193.612 109.6ZM192.332 105.56V104.56H191.315L191.332 105.578L192.332 105.56ZM196.212 105.56L197.207 105.458L197.115 104.56H196.212V105.56ZM197.812 108.88L197.116 109.597L197.126 109.607L197.137 109.617L197.812 108.88ZM206.052 108.92L206.706 109.676L206.708 109.675L206.052 108.92ZM206.692 102.96L205.942 103.621L205.942 103.621L206.692 102.96ZM204.492 101.44L204.126 102.37L204.126 102.37L204.492 101.44ZM200.932 100.32L201.191 99.354L201.185 99.3524L200.932 100.32ZM196.492 98.88L196.09 99.7957L196.098 99.7991L196.492 98.88ZM193.652 96.64L192.85 97.2367L192.858 97.2483L192.867 97.2596L193.652 96.64ZM193.652 88.44L194.487 88.9903L194.487 88.9903L193.652 88.44ZM196.892 85.72L196.48 84.809L196.473 84.812L196.892 85.72ZM208.132 86.72L207.512 87.5046L207.518 87.5094L208.132 86.72ZM210.972 91.92V92.92H212.076L211.967 91.8217L210.972 91.92ZM206.972 91.92L205.98 92.044L206.09 92.92H206.972V91.92ZM205.292 89.12L204.65 89.8865L204.656 89.8917L204.663 89.8968L205.292 89.12ZM197.652 89.08L198.28 89.8588L198.286 89.8535L198.293 89.8482L197.652 89.08ZM197.052 94.84L196.3 95.4985L196.307 95.5072L196.315 95.5157L197.052 94.84ZM199.172 96.32L198.786 97.2422L198.803 97.2496L198.821 97.2563L199.172 96.32ZM202.732 97.44L202.462 98.4028L202.467 98.4041L202.732 97.44ZM207.172 98.96L206.76 99.8711L206.769 99.8752L206.778 99.8791L207.172 98.96ZM210.052 101.24L209.26 101.85L209.267 101.86L210.052 101.24ZM210.172 109.24L211.03 109.754L211.03 109.754L210.172 109.24ZM206.972 112.16L206.505 111.276L206.972 112.16ZM201.972 112.28C200.249 112.28 198.735 111.981 197.412 111.403L196.612 113.237C198.223 113.939 200.015 114.28 201.972 114.28V112.28ZM197.432 111.413C196.129 110.809 195.138 110.006 194.424 109.015L192.801 110.185C193.74 111.487 195.016 112.498 196.592 113.227L197.432 111.413ZM194.43 109.024C193.725 108.024 193.356 106.875 193.332 105.542L191.332 105.578C191.362 107.285 191.846 108.829 192.795 110.176L194.43 109.024ZM192.332 106.56H196.212V104.56H192.332V106.56ZM195.218 105.662C195.374 107.2 196.012 108.525 197.116 109.597L198.509 108.163C197.746 107.422 197.317 106.534 197.207 105.458L195.218 105.662ZM197.137 109.617C198.343 110.723 200.007 111.2 201.972 111.2V109.2C200.311 109.2 199.202 108.797 198.488 108.143L197.137 109.617ZM201.972 111.2C203.866 111.2 205.486 110.732 206.706 109.676L205.398 108.164C204.646 108.814 203.545 109.2 201.972 109.2V111.2ZM206.708 109.675C207.943 108.602 208.572 107.205 208.572 105.56H206.572C206.572 106.635 206.188 107.478 205.397 108.165L206.708 109.675ZM208.572 105.56C208.572 104.301 208.221 103.184 207.443 102.299L205.942 103.621C206.337 104.07 206.572 104.685 206.572 105.56H208.572ZM207.443 102.299C206.745 101.506 205.877 100.911 204.859 100.51L204.126 102.37C204.868 102.663 205.467 103.081 205.942 103.621L207.443 102.299ZM204.859 100.51C203.929 100.143 202.701 99.7585 201.191 99.3541L200.674 101.286C202.15 101.681 203.296 102.044 204.126 102.37L204.859 100.51ZM201.185 99.3524C199.37 98.8788 197.942 98.4135 196.886 97.9609L196.098 99.7991C197.282 100.307 198.815 100.801 200.68 101.288L201.185 99.3524ZM196.894 97.9644C195.963 97.5555 195.144 96.9159 194.437 96.0204L192.867 97.2596C193.76 98.3908 194.835 99.2445 196.09 99.7956L196.894 97.9644ZM194.455 96.0433C193.847 95.2257 193.492 94.0703 193.492 92.48H191.492C191.492 94.3564 191.911 95.9743 192.85 97.2367L194.455 96.0433ZM193.492 92.48C193.492 91.1389 193.83 89.9869 194.487 88.9903L192.817 87.8897C191.928 89.2398 191.492 90.7811 191.492 92.48H193.492ZM194.487 88.9903C195.149 87.9861 196.079 87.1969 197.311 86.628L196.473 84.812C194.933 85.5231 193.702 86.5473 192.817 87.8897L194.487 88.9903ZM197.305 86.631C198.569 86.0587 200.037 85.76 201.732 85.76V83.76C199.801 83.76 198.043 84.1013 196.48 84.809L197.305 86.631ZM201.732 85.76C204.176 85.76 206.075 86.3683 207.512 87.5046L208.752 85.9354C206.883 84.4584 204.515 83.76 201.732 83.76V85.76ZM207.518 87.5094C208.977 88.6439 209.79 90.125 209.977 92.0183L211.967 91.8217C211.728 89.3949 210.648 87.4094 208.746 85.9306L207.518 87.5094ZM210.972 90.92H206.972V92.92H210.972V90.92ZM207.965 91.796C207.794 90.4273 207.07 89.2743 205.922 88.3432L204.663 89.8968C205.488 90.5657 205.884 91.2793 205.98 92.044L207.965 91.796ZM205.935 88.3535C204.725 87.3397 203.17 86.88 201.372 86.88V88.88C202.828 88.88 203.887 89.247 204.65 89.8865L205.935 88.3535ZM201.372 86.88C199.671 86.88 198.188 87.3315 197.012 88.3118L198.293 89.8482C199.036 89.2285 200.034 88.88 201.372 88.88V86.88ZM197.025 88.3012C195.793 89.2936 195.212 90.694 195.212 92.36H197.212C197.212 91.1994 197.592 90.413 198.28 89.8588L197.025 88.3012ZM195.212 92.36C195.212 93.5668 195.551 94.6426 196.3 95.4985L197.805 94.1815C197.434 93.7574 197.212 93.1799 197.212 92.36H195.212ZM196.315 95.5157C197.003 96.2657 197.83 96.8415 198.786 97.2422L199.559 95.3978C198.861 95.1051 198.275 94.6943 197.789 94.1643L196.315 95.5157ZM198.821 97.2563C199.713 97.5909 200.931 97.9731 202.462 98.4028L203.003 96.4772C201.493 96.0535 200.338 95.6891 199.523 95.3837L198.821 97.2563ZM202.467 98.4041C204.281 98.9036 205.706 99.3942 206.76 99.8711L207.585 98.0489C206.399 97.5124 204.864 96.9897 202.998 96.4759L202.467 98.4041ZM206.778 99.8791C207.729 100.287 208.556 100.935 209.26 101.85L210.845 100.63C209.949 99.4655 208.855 98.5934 207.566 98.0409L206.778 99.8791ZM209.267 101.86C209.885 102.642 210.252 103.784 210.252 105.4H212.252C212.252 103.496 211.82 101.865 210.837 100.62L209.267 101.86ZM210.252 105.4C210.252 106.573 209.944 107.676 209.315 108.726L211.03 109.754C211.84 108.404 212.252 106.947 212.252 105.4H210.252ZM209.315 108.726C208.702 109.748 207.781 110.602 206.505 111.276L207.439 113.044C208.991 112.225 210.203 111.132 211.03 109.754L209.315 108.726ZM206.505 111.276C205.262 111.933 203.762 112.28 201.972 112.28V114.28C204.023 114.28 205.856 113.881 207.439 113.044L206.505 111.276Z" fill="black" mask="url(#path-6-outside-1_961_568)"/>
</g>
<g filter="url(#filter1_d_961_568)">
<mask id="path-8-outside-2_961_568" maskUnits="userSpaceOnUse" x="41.0195" y="84" width="173" height="34" fill="black">
<rect fill="white" x="41.0195" y="84" width="173" height="34"/>
<path d="M57.2302 115.28C54.6435 115.28 52.2835 114.68 50.1502 113.48C48.0168 112.253 46.3235 110.56 45.0702 108.4C43.8435 106.213 43.2302 103.76 43.2302 101.04C43.2302 98.32 43.8435 95.88 45.0702 93.72C46.3235 91.5333 48.0168 89.84 50.1502 88.64C52.2835 87.4133 54.6435 86.8 57.2302 86.8C59.8435 86.8 62.2168 87.4133 64.3502 88.64C66.4835 89.84 68.1635 91.52 69.3902 93.68C70.6168 95.84 71.2302 98.2933 71.2302 101.04C71.2302 103.787 70.6168 106.24 69.3902 108.4C68.1635 110.56 66.4835 112.253 64.3502 113.48C62.2168 114.68 59.8435 115.28 57.2302 115.28ZM57.2302 112.12C59.1768 112.12 60.9235 111.667 62.4702 110.76C64.0435 109.853 65.2702 108.56 66.1502 106.88C67.0568 105.2 67.5102 103.253 67.5102 101.04C67.5102 98.8 67.0568 96.8533 66.1502 95.2C65.2702 93.52 64.0568 92.2267 62.5102 91.32C60.9635 90.4133 59.2035 89.96 57.2302 89.96C55.2568 89.96 53.4968 90.4133 51.9502 91.32C50.4035 92.2267 49.1768 93.52 48.2702 95.2C47.3902 96.8533 46.9502 98.8 46.9502 101.04C46.9502 103.253 47.3902 105.2 48.2702 106.88C49.1768 108.56 50.4035 109.853 51.9502 110.76C53.5235 111.667 55.2835 112.12 57.2302 112.12ZM91.1155 115L84.4755 103.6H80.0755V115H76.4355V87.12H85.4355C87.5421 87.12 89.3155 87.48 90.7555 88.2C92.2221 88.92 93.3155 89.8933 94.0355 91.12C94.7555 92.3467 95.1155 93.7467 95.1155 95.32C95.1155 97.24 94.5555 98.9333 93.4355 100.4C92.3421 101.867 90.6888 102.84 88.4755 103.32L95.4755 115H91.1155ZM80.0755 100.68H85.4355C87.4088 100.68 88.8888 100.2 89.8755 99.24C90.8621 98.2533 91.3555 96.9467 91.3555 95.32C91.3555 93.6667 90.8621 92.3867 89.8755 91.48C88.9155 90.5733 87.4355 90.12 85.4355 90.12H80.0755V100.68ZM104.811 87.12V115H101.171V87.12H104.811ZM115.055 90.08V99.4H125.215V102.4H115.055V112H126.415V115H111.415V87.08H126.415V90.08H115.055ZM154.243 115H150.603L135.963 92.8V115H132.323V87.08H135.963L150.603 109.24V87.08H154.243V115ZM178.008 87.12V90.08H170.408V115H166.768V90.08H159.128V87.12H178.008ZM186.529 87.12V115H182.889V87.12H186.529ZM201.972 115.28C200.132 115.28 198.479 114.96 197.012 114.32C195.572 113.653 194.439 112.747 193.612 111.6C192.786 110.427 192.359 109.08 192.332 107.56H196.212C196.346 108.867 196.879 109.973 197.812 110.88C198.772 111.76 200.159 112.2 201.972 112.2C203.706 112.2 205.066 111.773 206.052 110.92C207.066 110.04 207.572 108.92 207.572 107.56C207.572 106.493 207.279 105.627 206.692 104.96C206.106 104.293 205.372 103.787 204.492 103.44C203.612 103.093 202.426 102.72 200.932 102.32C199.092 101.84 197.612 101.36 196.492 100.88C195.399 100.4 194.452 99.6533 193.652 98.64C192.879 97.6 192.492 96.2133 192.492 94.48C192.492 92.96 192.879 91.6133 193.652 90.44C194.426 89.2667 195.506 88.36 196.892 87.72C198.306 87.08 199.919 86.76 201.732 86.76C204.346 86.76 206.479 87.4133 208.132 88.72C209.812 90.0267 210.759 91.76 210.972 93.92H206.972C206.839 92.8533 206.279 91.92 205.292 91.12C204.306 90.2933 202.999 89.88 201.372 89.88C199.852 89.88 198.612 90.28 197.652 91.08C196.692 91.8533 196.212 92.9467 196.212 94.36C196.212 95.3733 196.492 96.2 197.052 96.84C197.639 97.48 198.346 97.9733 199.172 98.32C200.026 98.64 201.212 99.0133 202.732 99.44C204.572 99.9467 206.052 100.453 207.172 100.96C208.292 101.44 209.252 102.2 210.052 103.24C210.852 104.253 211.252 105.64 211.252 107.4C211.252 108.76 210.892 110.04 210.172 111.24C209.452 112.44 208.386 113.413 206.972 114.16C205.559 114.907 203.892 115.28 201.972 115.28Z"/>
</mask>
<path d="M57.2302 115.28C54.6435 115.28 52.2835 114.68 50.1502 113.48C48.0168 112.253 46.3235 110.56 45.0702 108.4C43.8435 106.213 43.2302 103.76 43.2302 101.04C43.2302 98.32 43.8435 95.88 45.0702 93.72C46.3235 91.5333 48.0168 89.84 50.1502 88.64C52.2835 87.4133 54.6435 86.8 57.2302 86.8C59.8435 86.8 62.2168 87.4133 64.3502 88.64C66.4835 89.84 68.1635 91.52 69.3902 93.68C70.6168 95.84 71.2302 98.2933 71.2302 101.04C71.2302 103.787 70.6168 106.24 69.3902 108.4C68.1635 110.56 66.4835 112.253 64.3502 113.48C62.2168 114.68 59.8435 115.28 57.2302 115.28ZM57.2302 112.12C59.1768 112.12 60.9235 111.667 62.4702 110.76C64.0435 109.853 65.2702 108.56 66.1502 106.88C67.0568 105.2 67.5102 103.253 67.5102 101.04C67.5102 98.8 67.0568 96.8533 66.1502 95.2C65.2702 93.52 64.0568 92.2267 62.5102 91.32C60.9635 90.4133 59.2035 89.96 57.2302 89.96C55.2568 89.96 53.4968 90.4133 51.9502 91.32C50.4035 92.2267 49.1768 93.52 48.2702 95.2C47.3902 96.8533 46.9502 98.8 46.9502 101.04C46.9502 103.253 47.3902 105.2 48.2702 106.88C49.1768 108.56 50.4035 109.853 51.9502 110.76C53.5235 111.667 55.2835 112.12 57.2302 112.12ZM91.1155 115L84.4755 103.6H80.0755V115H76.4355V87.12H85.4355C87.5421 87.12 89.3155 87.48 90.7555 88.2C92.2221 88.92 93.3155 89.8933 94.0355 91.12C94.7555 92.3467 95.1155 93.7467 95.1155 95.32C95.1155 97.24 94.5555 98.9333 93.4355 100.4C92.3421 101.867 90.6888 102.84 88.4755 103.32L95.4755 115H91.1155ZM80.0755 100.68H85.4355C87.4088 100.68 88.8888 100.2 89.8755 99.24C90.8621 98.2533 91.3555 96.9467 91.3555 95.32C91.3555 93.6667 90.8621 92.3867 89.8755 91.48C88.9155 90.5733 87.4355 90.12 85.4355 90.12H80.0755V100.68ZM104.811 87.12V115H101.171V87.12H104.811ZM115.055 90.08V99.4H125.215V102.4H115.055V112H126.415V115H111.415V87.08H126.415V90.08H115.055ZM154.243 115H150.603L135.963 92.8V115H132.323V87.08H135.963L150.603 109.24V87.08H154.243V115ZM178.008 87.12V90.08H170.408V115H166.768V90.08H159.128V87.12H178.008ZM186.529 87.12V115H182.889V87.12H186.529ZM201.972 115.28C200.132 115.28 198.479 114.96 197.012 114.32C195.572 113.653 194.439 112.747 193.612 111.6C192.786 110.427 192.359 109.08 192.332 107.56H196.212C196.346 108.867 196.879 109.973 197.812 110.88C198.772 111.76 200.159 112.2 201.972 112.2C203.706 112.2 205.066 111.773 206.052 110.92C207.066 110.04 207.572 108.92 207.572 107.56C207.572 106.493 207.279 105.627 206.692 104.96C206.106 104.293 205.372 103.787 204.492 103.44C203.612 103.093 202.426 102.72 200.932 102.32C199.092 101.84 197.612 101.36 196.492 100.88C195.399 100.4 194.452 99.6533 193.652 98.64C192.879 97.6 192.492 96.2133 192.492 94.48C192.492 92.96 192.879 91.6133 193.652 90.44C194.426 89.2667 195.506 88.36 196.892 87.72C198.306 87.08 199.919 86.76 201.732 86.76C204.346 86.76 206.479 87.4133 208.132 88.72C209.812 90.0267 210.759 91.76 210.972 93.92H206.972C206.839 92.8533 206.279 91.92 205.292 91.12C204.306 90.2933 202.999 89.88 201.372 89.88C199.852 89.88 198.612 90.28 197.652 91.08C196.692 91.8533 196.212 92.9467 196.212 94.36C196.212 95.3733 196.492 96.2 197.052 96.84C197.639 97.48 198.346 97.9733 199.172 98.32C200.026 98.64 201.212 99.0133 202.732 99.44C204.572 99.9467 206.052 100.453 207.172 100.96C208.292 101.44 209.252 102.2 210.052 103.24C210.852 104.253 211.252 105.64 211.252 107.4C211.252 108.76 210.892 110.04 210.172 111.24C209.452 112.44 208.386 113.413 206.972 114.16C205.559 114.907 203.892 115.28 201.972 115.28Z" fill="#0EFF8B" style="mix-blend-mode:screen" shape-rendering="crispEdges"/>
<path d="M50.1502 113.48L49.1532 115.214L49.1614 115.219L49.1696 115.223L50.1502 113.48ZM45.0702 108.4L43.3259 109.379L43.333 109.391L43.3403 109.404L45.0702 108.4ZM45.0702 93.72L43.335 92.7254L43.331 92.7323L45.0702 93.72ZM50.1502 88.64L51.1307 90.3831L51.1389 90.3785L51.1471 90.3738L50.1502 88.64ZM64.3502 88.64L63.3532 90.3738L63.3614 90.3785L63.3696 90.3831L64.3502 88.64ZM69.3902 93.68L71.1293 92.6923L71.1293 92.6923L69.3902 93.68ZM69.3902 108.4L67.651 107.412L69.3902 108.4ZM64.3502 113.48L65.3307 115.223L65.3389 115.219L65.3471 115.214L64.3502 113.48ZM62.4702 110.76L61.4716 109.027L61.4651 109.031L61.4587 109.035L62.4702 110.76ZM66.1502 106.88L64.3901 105.93L64.3842 105.941L64.3785 105.952L66.1502 106.88ZM66.1502 95.2L64.3785 96.128L64.3874 96.1449L64.3965 96.1617L66.1502 95.2ZM62.5102 91.32L61.4987 93.0454L61.4987 93.0454L62.5102 91.32ZM51.9502 91.32L52.9616 93.0454L52.9616 93.0454L51.9502 91.32ZM48.2702 95.2L46.5101 94.2501L46.5047 94.2603L48.2702 95.2ZM48.2702 106.88L46.4985 107.808L46.5042 107.819L46.5101 107.83L48.2702 106.88ZM51.9502 110.76L50.9387 112.485L50.9451 112.489L50.9516 112.493L51.9502 110.76ZM57.2302 113.28C54.9668 113.28 52.9475 112.759 51.1307 111.737L49.1696 115.223C51.6195 116.601 54.3202 117.28 57.2302 117.28V113.28ZM51.1471 111.746C49.3226 110.697 47.88 109.258 46.8 107.396L43.3403 109.404C44.7669 111.862 46.7111 113.81 49.1532 115.214L51.1471 111.746ZM46.8144 107.421C45.7695 105.559 45.2302 103.447 45.2302 101.04H41.2302C41.2302 104.073 41.9175 106.868 43.3259 109.379L46.8144 107.421ZM45.2302 101.04C45.2302 98.6325 45.7695 96.5385 46.8093 94.7076L43.331 92.7323C41.9174 95.2215 41.2302 98.0075 41.2302 101.04H45.2302ZM46.8053 94.7146C47.8848 92.8312 49.3215 91.4008 51.1307 90.3831L49.1696 86.8968C46.7122 88.2792 44.7621 90.2355 43.335 92.7254L46.8053 94.7146ZM51.1471 90.3738C52.9614 89.3306 54.9748 88.8 57.2302 88.8V84.8C54.3122 84.8 51.6056 85.4961 49.1532 86.9062L51.1471 90.3738ZM57.2302 88.8C59.5161 88.8 61.5421 89.3324 63.3532 90.3738L65.3471 86.9062C62.8915 85.4942 60.1709 84.8 57.2302 84.8V88.8ZM63.3696 90.3831C65.1812 91.4022 66.6011 92.8188 67.651 94.6676L71.1293 92.6923C69.7259 90.2212 67.7858 88.2778 65.3307 86.8968L63.3696 90.3831ZM67.651 94.6676C68.6891 96.4956 69.2302 98.6021 69.2302 101.04H73.2302C73.2302 97.9846 72.5445 95.1844 71.1293 92.6923L67.651 94.6676ZM69.2302 101.04C69.2302 103.478 68.6891 105.584 67.651 107.412L71.1293 109.388C72.5445 106.896 73.2302 104.095 73.2302 101.04H69.2302ZM67.651 107.412C66.599 109.265 65.1739 110.699 63.3532 111.746L65.3471 115.214C67.7931 113.807 69.728 111.855 71.1293 109.388L67.651 107.412ZM63.3696 111.737C61.5559 112.757 59.524 113.28 57.2302 113.28V117.28C60.1629 117.28 62.8777 116.603 65.3307 115.223L63.3696 111.737ZM57.2302 114.12C59.5009 114.12 61.6021 113.587 63.4816 112.485L61.4587 109.035C60.2449 109.746 58.8528 110.12 57.2302 110.12V114.12ZM63.4688 112.493C65.3859 111.388 66.8739 109.809 67.9218 107.808L64.3785 105.952C63.6664 107.311 62.701 108.319 61.4716 109.027L63.4688 112.493ZM67.9102 107.83C68.9978 105.815 69.5102 103.532 69.5102 101.04H65.5102C65.5102 102.975 65.1158 104.585 64.3901 105.93L67.9102 107.83ZM69.5102 101.04C69.5102 98.527 69 96.2372 67.9038 94.2383L64.3965 96.1617C65.1137 97.4694 65.5102 99.073 65.5102 101.04H69.5102ZM67.9218 94.272C66.8786 92.2803 65.4103 90.7018 63.5216 89.5946L61.4987 93.0454C62.7033 93.7515 63.6617 94.7597 64.3785 96.128L67.9218 94.272ZM63.5216 89.5946C61.6379 88.4904 59.5222 87.96 57.2302 87.96V91.96C58.8847 91.96 60.2891 92.3363 61.4987 93.0454L63.5216 89.5946ZM57.2302 87.96C54.9381 87.96 52.8224 88.4904 50.9387 89.5946L52.9616 93.0454C54.1712 92.3363 55.5756 91.96 57.2302 91.96V87.96ZM50.9387 89.5946C49.0556 90.6985 47.5789 92.2697 46.5101 94.2501L50.0302 96.1499C50.7747 94.7703 51.7514 93.7548 52.9616 93.0454L50.9387 89.5946ZM46.5047 94.2603C45.4432 96.2545 44.9502 98.5362 44.9502 101.04H48.9502C48.9502 99.0638 49.3371 97.4521 50.0356 96.1397L46.5047 94.2603ZM44.9502 101.04C44.9502 103.522 45.4453 105.797 46.4985 107.808L50.0418 105.952C49.335 104.603 48.9502 102.984 48.9502 101.04H44.9502ZM46.5101 107.83C47.5789 109.81 49.0556 111.381 50.9387 112.485L52.9616 109.035C51.7514 108.325 50.7747 107.31 50.0302 105.93L46.5101 107.83ZM50.9516 112.493C52.8504 113.587 54.9591 114.12 57.2302 114.12V110.12C55.6079 110.12 54.1965 109.746 52.9488 109.027L50.9516 112.493ZM91.1155 115L89.3873 116.007L89.9659 117H91.1155V115ZM84.4755 103.6L86.2037 102.593L85.6251 101.6H84.4755V103.6ZM80.0755 103.6V101.6H78.0755V103.6H80.0755ZM80.0755 115V117H82.0755V115H80.0755ZM76.4355 115H74.4355V117H76.4355V115ZM76.4355 87.12V85.12H74.4355V87.12H76.4355ZM90.7555 88.2L89.861 89.9889L89.8676 89.9921L89.8741 89.9953L90.7555 88.2ZM93.4355 100.4L91.8459 99.1862L91.8389 99.1954L91.832 99.2047L93.4355 100.4ZM88.4755 103.32L88.0516 101.365L85.3266 101.956L86.76 104.348L88.4755 103.32ZM95.4755 115V117H99.0058L97.191 113.972L95.4755 115ZM80.0755 100.68H78.0755V102.68H80.0755V100.68ZM89.8755 99.24L91.2702 100.673L91.28 100.664L91.2897 100.654L89.8755 99.24ZM89.8755 91.48L88.5022 92.934L88.5122 92.9434L88.5222 92.9527L89.8755 91.48ZM80.0755 90.12V88.12H78.0755V90.12H80.0755ZM92.8437 113.993L86.2037 102.593L82.7473 104.607L89.3873 116.007L92.8437 113.993ZM84.4755 101.6H80.0755V105.6H84.4755V101.6ZM78.0755 103.6V115H82.0755V103.6H78.0755ZM80.0755 113H76.4355V117H80.0755V113ZM78.4355 115V87.12H74.4355V115H78.4355ZM76.4355 89.12H85.4355V85.12H76.4355V89.12ZM85.4355 89.12C87.3238 89.12 88.7709 89.4438 89.861 89.9889L91.6499 86.4111C89.8601 85.5162 87.7605 85.12 85.4355 85.12V89.12ZM89.8741 89.9953C91.0427 90.569 91.8173 91.2919 92.3106 92.1324L95.7603 90.1076C94.8136 88.4948 93.4015 87.271 91.6368 86.4047L89.8741 89.9953ZM92.3106 92.1324C92.8318 93.0203 93.1155 94.0638 93.1155 95.32H97.1155C97.1155 93.4295 96.6792 91.6731 95.7603 90.1076L92.3106 92.1324ZM93.1155 95.32C93.1155 96.8204 92.6884 98.083 91.8459 99.1862L95.025 101.614C96.4226 99.7837 97.1155 97.6596 97.1155 95.32H93.1155ZM91.832 99.2047C91.0914 100.198 89.9096 100.962 88.0516 101.365L88.8994 105.275C91.468 104.718 93.5929 103.535 95.039 101.595L91.832 99.2047ZM86.76 104.348L93.76 116.028L97.191 113.972L90.191 102.292L86.76 104.348ZM95.4755 113H91.1155V117H95.4755V113ZM80.0755 102.68H85.4355V98.68H80.0755V102.68ZM85.4355 102.68C87.7036 102.68 89.7745 102.129 91.2702 100.673L88.4808 97.8065C88.0031 98.2713 87.114 98.68 85.4355 98.68V102.68ZM91.2897 100.654C92.7136 99.2303 93.3555 97.3821 93.3555 95.32H89.3555C89.3555 96.5112 89.0106 97.2764 88.4613 97.8258L91.2897 100.654ZM93.3555 95.32C93.3555 93.2477 92.7209 91.3785 91.2287 90.0073L88.5222 92.9527C89.0034 93.3948 89.3555 94.0857 89.3555 95.32H93.3555ZM91.2487 90.026C89.7655 88.6252 87.6896 88.12 85.4355 88.12V92.12C87.1813 92.12 88.0654 92.5215 88.5022 92.934L91.2487 90.026ZM85.4355 88.12H80.0755V92.12H85.4355V88.12ZM78.0755 90.12V100.68H82.0755V90.12H78.0755ZM104.811 87.12H106.811V85.12H104.811V87.12ZM104.811 115V117H106.811V115H104.811ZM101.171 115H99.1714V117H101.171V115ZM101.171 87.12V85.12H99.1714V87.12H101.171ZM102.811 87.12V115H106.811V87.12H102.811ZM104.811 113H101.171V117H104.811V113ZM103.171 115V87.12H99.1714V115H103.171ZM101.171 89.12H104.811V85.12H101.171V89.12ZM115.055 90.08V88.08H113.055V90.08H115.055ZM115.055 99.4H113.055V101.4H115.055V99.4ZM125.215 99.4H127.215V97.4H125.215V99.4ZM125.215 102.4V104.4H127.215V102.4H125.215ZM115.055 102.4V100.4H113.055V102.4H115.055ZM115.055 112H113.055V114H115.055V112ZM126.415 112H128.415V110H126.415V112ZM126.415 115V117H128.415V115H126.415ZM111.415 115H109.415V117H111.415V115ZM111.415 87.08V85.08H109.415V87.08H111.415ZM126.415 87.08H128.415V85.08H126.415V87.08ZM126.415 90.08V92.08H128.415V90.08H126.415ZM113.055 90.08V99.4H117.055V90.08H113.055ZM115.055 101.4H125.215V97.4H115.055V101.4ZM123.215 99.4V102.4H127.215V99.4H123.215ZM125.215 100.4H115.055V104.4H125.215V100.4ZM113.055 102.4V112H117.055V102.4H113.055ZM115.055 114H126.415V110H115.055V114ZM124.415 112V115H128.415V112H124.415ZM126.415 113H111.415V117H126.415V113ZM113.415 115V87.08H109.415V115H113.415ZM111.415 89.08H126.415V85.08H111.415V89.08ZM124.415 87.08V90.08H128.415V87.08H124.415ZM126.415 88.08H115.055V92.08H126.415V88.08ZM154.243 115V117H156.243V115H154.243ZM150.603 115L148.933 116.101L149.526 117H150.603V115ZM135.963 92.8L137.633 91.6989L133.963 86.1343V92.8H135.963ZM135.963 115V117H137.963V115H135.963ZM132.323 115H130.323V117H132.323V115ZM132.323 87.08V85.08H130.323V87.08H132.323ZM135.963 87.08L137.632 85.9776L137.039 85.08H135.963V87.08ZM150.603 109.24L148.934 110.342L152.603 115.896V109.24H150.603ZM150.603 87.08V85.08H148.603V87.08H150.603ZM154.243 87.08H156.243V85.08H154.243V87.08ZM154.243 113H150.603V117H154.243V113ZM152.273 113.899L137.633 91.6989L134.293 93.9011L148.933 116.101L152.273 113.899ZM133.963 92.8V115H137.963V92.8H133.963ZM135.963 113H132.323V117H135.963V113ZM134.323 115V87.08H130.323V115H134.323ZM132.323 89.08H135.963V85.08H132.323V89.08ZM134.294 88.1824L148.934 110.342L152.272 108.138L137.632 85.9776L134.294 88.1824ZM152.603 109.24V87.08H148.603V109.24H152.603ZM150.603 89.08H154.243V85.08H150.603V89.08ZM152.243 87.08V115H156.243V87.08H152.243ZM178.008 87.12H180.008V85.12H178.008V87.12ZM178.008 90.08V92.08H180.008V90.08H178.008ZM170.408 90.08V88.08H168.408V90.08H170.408ZM170.408 115V117H172.408V115H170.408ZM166.768 115H164.768V117H166.768V115ZM166.768 90.08H168.768V88.08H166.768V90.08ZM159.128 90.08H157.128V92.08H159.128V90.08ZM159.128 87.12V85.12H157.128V87.12H159.128ZM176.008 87.12V90.08H180.008V87.12H176.008ZM178.008 88.08H170.408V92.08H178.008V88.08ZM168.408 90.08V115H172.408V90.08H168.408ZM170.408 113H166.768V117H170.408V113ZM168.768 115V90.08H164.768V115H168.768ZM166.768 88.08H159.128V92.08H166.768V88.08ZM161.128 90.08V87.12H157.128V90.08H161.128ZM159.128 89.12H178.008V85.12H159.128V89.12ZM186.529 87.12H188.529V85.12H186.529V87.12ZM186.529 115V117H188.529V115H186.529ZM182.889 115H180.889V117H182.889V115ZM182.889 87.12V85.12H180.889V87.12H182.889ZM184.529 87.12V115H188.529V87.12H184.529ZM186.529 113H182.889V117H186.529V113ZM184.889 115V87.12H180.889V115H184.889ZM182.889 89.12H186.529V85.12H182.889V89.12ZM197.012 114.32L196.172 116.135L196.192 116.144L196.212 116.153L197.012 114.32ZM193.612 111.6L191.977 112.752L191.984 112.761L191.99 112.77L193.612 111.6ZM192.332 107.56V105.56H190.297L190.333 107.595L192.332 107.56ZM196.212 107.56L198.202 107.357L198.019 105.56H196.212V107.56ZM197.812 110.88L196.419 112.315L196.44 112.335L196.461 112.354L197.812 110.88ZM206.052 110.92L207.361 112.433L207.364 112.43L206.052 110.92ZM206.692 104.96L205.191 106.281L205.191 106.281L206.692 104.96ZM204.492 103.44L203.759 105.301L203.759 105.301L204.492 103.44ZM200.932 102.32L201.45 100.388L201.437 100.385L200.932 102.32ZM196.492 100.88L195.688 102.711L195.696 102.715L195.704 102.718L196.492 100.88ZM193.652 98.64L192.047 99.8334L192.065 99.8566L192.083 99.8793L193.652 98.64ZM193.652 90.44L195.322 91.5406L195.322 91.5406L193.652 90.44ZM196.892 87.72L196.067 85.8981L196.061 85.9011L196.054 85.9041L196.892 87.72ZM208.132 88.72L206.892 90.2891L206.898 90.2939L206.904 90.2987L208.132 88.72ZM210.972 93.92V95.92H213.18L212.963 93.7234L210.972 93.92ZM206.972 93.92L204.988 94.1681L205.207 95.92H206.972V93.92ZM205.292 91.12L204.008 92.653L204.02 92.6634L204.033 92.6735L205.292 91.12ZM197.652 91.08L198.907 92.6375L198.92 92.6271L198.933 92.6164L197.652 91.08ZM197.052 96.84L195.547 98.157L195.562 98.1744L195.578 98.1914L197.052 96.84ZM199.172 98.32L198.399 100.164L198.434 100.179L198.47 100.193L199.172 98.32ZM202.732 99.44L202.192 101.366L202.201 101.368L202.732 99.44ZM207.172 100.96L206.348 102.782L206.366 102.79L206.385 102.798L207.172 100.96ZM210.052 103.24L208.467 104.459L208.475 104.469L208.483 104.479L210.052 103.24ZM210.172 111.24L211.887 112.269L211.887 112.269L210.172 111.24ZM206.972 114.16L206.038 112.392L206.972 114.16ZM201.972 113.28C200.367 113.28 198.992 113.002 197.812 112.487L196.212 116.153C197.966 116.918 199.898 117.28 201.972 117.28V113.28ZM197.853 112.505C196.685 111.965 195.837 111.265 195.235 110.43L191.99 112.77C193.041 114.228 194.459 115.342 196.172 116.135L197.853 112.505ZM195.247 110.448C194.665 109.622 194.352 108.67 194.332 107.525L190.333 107.595C190.366 109.49 190.906 111.231 191.977 112.752L195.247 110.448ZM192.332 109.56H196.212V105.56H192.332V109.56ZM194.223 107.763C194.403 109.533 195.145 111.077 196.419 112.315L199.206 109.445C198.613 108.87 198.288 108.201 198.202 107.357L194.223 107.763ZM196.461 112.354C197.913 113.685 199.856 114.2 201.972 114.2V110.2C200.462 110.2 199.632 109.835 199.164 109.406L196.461 112.354ZM201.972 114.2C204.026 114.2 205.906 113.691 207.361 112.433L204.744 109.407C204.226 109.855 203.385 110.2 201.972 110.2V114.2ZM207.364 112.43C208.821 111.164 209.572 109.49 209.572 107.56H205.572C205.572 108.35 205.31 108.916 204.741 109.41L207.364 112.43ZM209.572 107.56C209.572 106.11 209.164 104.741 208.194 103.639L205.191 106.281C205.394 106.512 205.572 106.877 205.572 107.56H209.572ZM208.194 103.639C207.384 102.718 206.381 102.034 205.225 101.579L203.759 105.301C204.364 105.539 204.827 105.868 205.191 106.281L208.194 103.639ZM205.225 101.579C204.245 101.193 202.977 100.797 201.45 100.388L200.415 104.252C201.875 104.643 202.98 104.994 203.759 105.301L205.225 101.579ZM201.437 100.385C199.647 99.9177 198.272 99.467 197.28 99.0417L195.704 102.718C196.952 103.253 198.538 103.762 200.427 104.255L201.437 100.385ZM197.296 99.0487C196.527 98.7109 195.836 98.1784 195.222 97.4007L192.083 99.8793C193.069 101.128 194.271 102.089 195.688 102.711L197.296 99.0487ZM195.257 97.4466C194.815 96.8514 194.492 95.9272 194.492 94.48H190.492C190.492 96.4995 190.943 98.3486 192.047 99.8334L195.257 97.4466ZM194.492 94.48C194.492 93.3179 194.782 92.3605 195.322 91.5406L191.982 89.3394C190.976 90.8662 190.492 92.6021 190.492 94.48H194.492ZM195.322 91.5406C195.873 90.7055 196.652 90.0337 197.73 89.5359L196.054 85.9041C194.36 86.6862 192.979 87.8278 191.982 89.3394L195.322 91.5406ZM197.717 89.5419C198.831 89.0374 200.156 88.76 201.732 88.76V84.76C199.682 84.76 197.78 85.1225 196.067 85.8981L197.717 89.5419ZM201.732 88.76C204.006 88.76 205.67 89.3232 206.892 90.2891L209.372 87.1509C207.288 85.5035 204.685 84.76 201.732 84.76V88.76ZM206.904 90.2987C208.142 91.2612 208.821 92.4901 208.982 94.1166L212.963 93.7234C212.697 91.0299 211.483 88.7921 209.36 87.1413L206.904 90.2987ZM210.972 91.92H206.972V95.92H210.972V91.92ZM208.957 93.6719C208.748 92.0013 207.862 90.6286 206.552 89.5665L204.033 92.6735C204.696 93.2114 204.93 93.7054 204.988 94.1681L208.957 93.6719ZM206.577 89.587C205.143 88.386 203.342 87.88 201.372 87.88V91.88C202.656 91.88 203.468 92.2006 204.008 92.653L206.577 89.587ZM201.372 87.88C199.49 87.88 197.765 88.383 196.372 89.5436L198.933 92.6164C199.46 92.177 200.215 91.88 201.372 91.88V87.88ZM196.398 89.5225C194.894 90.734 194.212 92.4413 194.212 94.36H198.212C198.212 93.4521 198.491 92.9727 198.907 92.6375L196.398 89.5225ZM194.212 94.36C194.212 95.7602 194.609 97.0851 195.547 98.157L198.557 95.523C198.375 95.3149 198.212 94.9865 198.212 94.36H194.212ZM195.578 98.1914C196.366 99.0515 197.315 99.7097 198.399 100.164L199.946 96.4756C199.377 96.237 198.912 95.9085 198.527 95.4886L195.578 98.1914ZM198.47 100.193C199.401 100.542 200.65 100.933 202.192 101.366L203.273 97.5144C201.774 97.0938 200.65 96.7382 199.875 96.4473L198.47 100.193ZM202.201 101.368C203.989 101.861 205.36 102.335 206.348 102.782L207.997 99.1378C206.745 98.5715 205.155 98.0328 203.263 97.5118L202.201 101.368ZM206.385 102.798C207.166 103.133 207.859 103.669 208.467 104.459L211.638 102.021C210.646 100.731 209.418 99.7467 207.96 99.1217L206.385 102.798ZM208.483 104.479C208.918 105.031 209.252 105.928 209.252 107.4H213.252C213.252 105.352 212.787 103.476 211.622 102.001L208.483 104.479ZM209.252 107.4C209.252 108.387 208.997 109.312 208.457 110.211L211.887 112.269C212.788 110.768 213.252 109.133 213.252 107.4H209.252ZM208.457 110.211C207.951 111.055 207.175 111.791 206.038 112.392L207.907 115.928C209.596 115.036 210.954 113.825 211.887 112.269L208.457 110.211ZM206.038 112.392C204.965 112.958 203.632 113.28 201.972 113.28V117.28C204.153 117.28 206.153 116.855 207.907 115.928L206.038 112.392Z" fill="black" mask="url(#path-8-outside-2_961_568)"/>
</g>
<defs>
<filter id="filter0_d_961_568" x="39.2305" y="84.7598" width="176.021" height="37.5205" filterUnits="userSpaceOnUse" color-interpolation-filters="sRGB">
<feFlood flood-opacity="0" result="BackgroundImageFix"/>
<feColorMatrix in="SourceAlpha" type="matrix" values="0 0 0 0 0 0 0 0 0 0 0 0 0 0 0 0 0 0 127 0" result="hardAlpha"/>
<feOffset dy="5"/>
<feGaussianBlur stdDeviation="2"/>
<feComposite in2="hardAlpha" operator="out"/>
<feColorMatrix type="matrix" values="0 0 0 0 0 0 0 0 0 0 0 0 0 0 0 0 0 0 0.25 0"/>
<feBlend mode="normal" in2="BackgroundImageFix" result="effect1_dropShadow_961_568"/>
<feBlend mode="normal" in="SourceGraphic" in2="effect1_dropShadow_961_568" result="shape"/>
</filter>
<filter id="filter1_d_961_568" x="39.2305" y="86.7598" width="176.021" height="37.5205" filterUnits="userSpaceOnUse" color-interpolation-filters="sRGB">
<feFlood flood-opacity="0" result="BackgroundImageFix"/>
<feColorMatrix in="SourceAlpha" type="matrix" values="0 0 0 0 0 0 0 0 0 0 0 0 0 0 0 0 0 0 127 0" result="hardAlpha"/>
<feOffset dy="5"/>
<feGaussianBlur stdDeviation="2"/>
<feComposite in2="hardAlpha" operator="out"/>
<feColorMatrix type="matrix" values="0 0 0 0 0 0 0 0 0 0 0 0 0 0 0 0 0 0 0.25 0"/>
<feBlend mode="normal" in2="BackgroundImageFix" result="effect1_dropShadow_961_568"/>
<feBlend mode="normal" in="SourceGraphic" in2="effect1_dropShadow_961_568" result="shape"/>
</filter>
<radialGradient id="paint0_radial_961_568" cx="0" cy="0" r="1" gradientUnits="userSpaceOnUse" gradientTransform="translate(250.519 157.88) rotate(-169.316) scale(253.901 249.322)">
<stop stop-color="#FF4545"/>
<stop offset="0.5" stop-color="#04FFF2"/>
<stop offset="0.75" stop-color="#676BFF"/>
<stop offset="0.875" stop-color="#F8FF1F"/>
<stop offset="1" stop-color="#FF00EE"/>
</radialGradient>
<radialGradient id="paint1_angular_961_568" cx="0" cy="0" r="1" gradientUnits="userSpaceOnUse" gradientTransform="translate(-0.0870208 176.104) rotate(-89.9059) scale(23.2984 2.25477)">
<stop offset="0.0302647" stop-color="#15FA2C"/>
<stop offset="0.0459762" stop-color="#FF0000"/>
</radialGradient>
<radialGradient id="paint2_angular_961_568" cx="0" cy="0" r="1" gradientUnits="userSpaceOnUse" gradientTransform="translate(-2.36949 151.025) rotate(-89.9059) scale(23.624 2.28628)">
<stop offset="0.0302647" stop-color="#15FA2C"/>
<stop offset="0.0459762" stop-color="#FF0000"/>
</radialGradient>
<radialGradient id="paint3_angular_961_568" cx="0" cy="0" r="1" gradientUnits="userSpaceOnUse" gradientTransform="translate(258.223 153.212) rotate(-96.0795) scale(2.5581 0.341361)">
<stop offset="0.254451" stop-color="#FF0000"/>
<stop offset="0.993929" stop-color="#15FA2C"/>
</radialGradient>
<radialGradient id="paint4_angular_961_568" cx="0" cy="0" r="1" gradientUnits="userSpaceOnUse" gradientTransform="translate(259.531 129.599) rotate(-96.1736) scale(2.59385 0.346132)">
<stop offset="0.254451" stop-color="#FF0000"/>
<stop offset="0.993929" stop-color="#15FA2C"/>
</radialGradient>
</defs>
</svg>
